<?xml version="1.0" encoding="UTF-8" standalone="no"?>
<svg
   version="1.0"
   width="891.000000pt"
   height="1280.000000pt"
   viewBox="0 0 891.000000 1280.000000"
   preserveAspectRatio="xMidYMid meet"
   id="svg1"
   sodipodi:docname="music-note.svg"
   inkscape:version="1.3.2 (091e20e, 2023-11-25, custom)"
   xmlns:inkscape="http://www.inkscape.org/namespaces/inkscape"
   xmlns:sodipodi="http://sodipodi.sourceforge.net/DTD/sodipodi-0.dtd"
   xmlns="http://www.w3.org/2000/svg"
   xmlns:svg="http://www.w3.org/2000/svg">
  <defs
     id="defs1" />
  <sodipodi:namedview
     id="namedview1"
     pagecolor="#ffffff"
     bordercolor="#000000"
     borderopacity="0.25"
     inkscape:showpageshadow="2"
     inkscape:pageopacity="0.0"
     inkscape:pagecheckerboard="0"
     inkscape:deskcolor="#d1d1d1"
     inkscape:document-units="pt"
     showgrid="false"
     inkscape:zoom="0.45527344"
     inkscape:cx="594.14843"
     inkscape:cy="677.61475"
     inkscape:window-width="1920"
     inkscape:window-height="991"
     inkscape:window-x="-9"
     inkscape:window-y="-9"
     inkscape:window-maximized="1"
     inkscape:current-layer="g1" />
  <metadata
     id="metadata1">
Created by potrace 1.15, written by Peter Selinger 2001-2017
</metadata>
  <g
     transform="translate(0.000000,1280.000000) scale(0.100000,-0.100000)"
     fill="#000000"
     stroke="none"
     id="g1">
    <path
       d="m 2983.8181,717.12508 c -101.5588,24.6365 -187.5636,135.04453 -187.5636,240.89025 0,20.98665 18.2989,138.69437 41.1725,261.87687 323.8903,1749.1918 497.7297,3264.793 563.6057,4904.4891 21.0438,503.6797 10.0644,1815.8016 -15.554,2069.4663 l -5.4897,52.0104 -56.7265,-55.6602 c -110.7083,-110.4081 -267.1638,-220.8161 -422.7044,-298.3755 -551.7114,-274.6514 -1236.0899,-252.7522 -1763.098,56.5727 -633.14152,371.3725 -918.60418,1066.6694 -701.76235,1712.6932 187.5636,562.9898 700.84745,968.1238 1355.03285,1073.0568 135.4117,20.987 419.0445,20.987 555.3712,0 203.1177,-31.936 362.318,-81.209 537.0724,-166.069 424.5342,-206.216 731.0406,-553.865 841.7489,-954.4358 12.8092,-47.4481 27.4483,-92.1588 32.938,-99.4585 44.8322,-68.4347 52.1518,-104.0208 71.3656,-314.7998 74.1105,-822.1292 96.9841,-1438.0418 89.6646,-2358.717 -6.4046,-828.5165 -34.7679,-1400.6309 -107.0485,-2230.9723 -48.4921,-545.6529 -131.752,-1266.4987 -206.7775,-1777.478 -11.8942,-84.8591 -21.9586,-157.8561 -21.9586,-162.4185 0,-4.5623 122.6025,72.9971 272.6534,172.4556 1015.5883,676.1351 1751.2036,1080.3562 2565.5042,1411.5803 373.2973,152.3814 810.6407,298.3755 1186.6829,396.009 76.8553,20.0742 141.8164,38.3235 144.5612,41.0609 8.2345,7.2997 75.0255,504.592 107.0485,790.193 43.9173,390.5342 68.6208,667.0105 101.5588,1145.1411 60.3864,875.9646 51.2369,1972.7452 -23.7885,2769.3255 -26.5334,288.3383 -80.5151,686.1725 -94.2393,699.8595 -1.8299,1.825 -17.3839,-15.512 -33.8529,-40.149 -50.322,-74.8218 -142.7314,-180.6675 -215.012,-248.1897 -700.8474,-653.3235 -1863.7418,-627.7746 -2525.2466,55.6602 -206.7774,213.5165 -336.6995,457.1445 -394.341,741.8325 -22.8736,115.883 -22.8736,395.097 0,510.98 79.6001,392.359 315.6558,735.445 668.8243,971.773 459.3021,307.5 1079.6345,384.147 1620.3666,200.742 267.1638,-90.334 471.1964,-216.254 667.9094,-414.258 154.6257,-154.207 249.7799,-294.726 329.38,-484.518 23.7886,-54.748 47.5771,-106.758 53.9818,-114.058 56.7265,-63.873 183.9038,-399.659 256.1844,-675.223 186.6487,-706.2468 270.8235,-1826.7513 235.1407,-3102.3747 -46.6622,-1671.6324 -230.566,-3192.7083 -494.9849,-4106.0839 -65.876,-227.2033 -93.3243,-280.1261 -166.5199,-323.0119 -22.8736,-12.7745 -116.1979,-41.0608 -226.9062,-69.3472 C 6621.6371,2751.0054 5677.4145,2340.397 4626.1433,1696.198 4295.8484,1493.6312 3891.443,1229.9293 3441.2903,922.42927 3290.3245,819.32094 3155.8276,734.46188 3130.2092,725.33725 c -47.5771,-16.42434 -98.814,-19.16173 -146.3911,-8.21217 z"
       id="path1"
       style="fill:none;fill-opacity:1;stroke:#000000;stroke-width:0.913703;stroke-opacity:1" />
  </g>
</svg>
